<?xml version="1.0" encoding="UTF-8" standalone="no"?>


<!-- Uploaded to: SVG Repo, www.svgrepo.com, Generator: SVG Repo Mixer Tools -->
<svg 
   xmlns:dc="http://purl.org/dc/elements/1.1/"
   xmlns:cc="http://creativecommons.org/ns#"
   xmlns:rdf="http://www.w3.org/1999/02/22-rdf-syntax-ns#"
   xmlns:svg="http://www.w3.org/2000/svg"
   xmlns="http://www.w3.org/2000/svg"
   xmlns:sodipodi="http://sodipodi.sourceforge.net/DTD/sodipodi-0.dtd"
   xmlns:inkscape="http://www.inkscape.org/namespaces/inkscape"
   width="30"
   height="30"
   viewBox="0 0 30 30"
   version="1.1"
   id="svg822"
   inkscape:version="0.92.4 (f8dce91, 2019-08-02)"
   sodipodi:docname="hdr.svg">
  <defs
     id="defs816" />
  <sodipodi:namedview
     id="base"
     pagecolor="#ffffff"
     bordercolor="#666666"
     borderopacity="1.0"
     inkscape:pageopacity="0.0"
     inkscape:pageshadow="2"
     inkscape:zoom="25.125861"
     inkscape:cx="11.690898"
     inkscape:cy="16.079357"
     inkscape:document-units="px"
     inkscape:current-layer="layer1"
     showgrid="true"
     units="px"
     inkscape:window-width="1366"
     inkscape:window-height="713"
     inkscape:window-x="0"
     inkscape:window-y="0"
     inkscape:window-maximized="1"
     showguides="false"
     inkscape:guide-bbox="true">
    <sodipodi:guide
       position="21.126168,22.794393"
       orientation="1,0"
       id="guide1575"
       inkscape:locked="false" />
    <sodipodi:guide
       position="22.682243,23.285047"
       orientation="1,0"
       id="guide1635"
       inkscape:locked="false" />
    <sodipodi:guide
       position="22.682243,7.6455921"
       orientation="0,1"
       id="guide1639"
       inkscape:locked="false" />
    <sodipodi:guide
       position="18.859863,18.859863"
       orientation="1,0"
       id="guide1242"
       inkscape:locked="false" />
    <inkscape:grid
       type="xygrid"
       id="grid1103" />
  </sodipodi:namedview>
  <metadata
     id="metadata819">
    <rdf:RDF>
      <cc:Work
         rdf:about="">
        <dc:format>image/svg+xml</dc:format>
        <dc:type
           rdf:resource="http://purl.org/dc/dcmitype/StillImage" />
        <dc:title />
      </cc:Work>
    </rdf:RDF>
  </metadata>
  <g
     inkscape:label="Layer 1"
     inkscape:groupmode="layer"
     id="layer1"
     transform="translate(0,-289.0625)">
    <g
       aria-label="HDR"
       style="font-style:normal;font-weight:normal;font-size:12.90474415px;line-height:1.25;font-family:sans-serif;letter-spacing:0px;word-spacing:0px;fill:currentColor;fill-opacity:1;stroke:none;stroke-width:1.19999993"
       id="text823"
       transform="matrix(0.83333333,0,0,0.83333333,2.5000001,50.677084)">
      <path
         style="font-style:italic;font-variant:normal;font-weight:600;font-stretch:normal;font-family:FiraGO;-inkscape-font-specification:'FiraGO Semi-Bold Italic';stroke-width:1.19999993"
         d="M 4.2519531,10.535156 3,19.464844 h 1.8710938 l 0.5546874,-3.910156 h 2.890625 L 7.7753906,19.464844 H 9.6464844 L 10.898438,10.535156 H 9.0273438 l -0.5039063,3.523438 h -2.890625 l 0.5039063,-3.523438 z m 8.5195309,0 -1.251953,8.929688 h 2.541016 c 1.195839,0 2.164425,-0.24906 2.904297,-0.748047 0.748475,-0.507587 1.286361,-1.1741 1.613281,-2 0.335523,-0.834507 0.503906,-1.768401 0.503906,-2.800781 0,-1.264667 -0.366387,-2.142433 -1.097656,-2.632813 -0.731269,-0.498987 -1.70297,-0.748047 -2.916016,-0.748047 z m 8.265625,0 -1.25,8.929688 h 1.882813 l 0.478516,-3.496094 h 1.005859 l 1.40625,3.496094 H 26.625 l -1.714844,-3.806641 c 0.765682,-0.292507 1.303568,-0.675264 1.613282,-1.148437 C 26.841755,14.027986 27,13.48192 27,12.871094 27,12.12262 26.729499,11.544972 26.1875,11.140625 25.645501,10.736272 24.845299,10.535156 23.787109,10.535156 Z m 1.677735,1.367188 h 0.878906 c 0.507587,0 0.87709,0.08263 1.109375,0.246094 0.232285,0.16346 0.347656,0.428894 0.347656,0.798828 0,0.455966 -0.133692,0.851973 -0.40039,1.1875 -0.266698,0.32692 -0.700513,0.490234 -1.302735,0.490234 h -1.005859 z m -8.265625,0.02539 h 0.748047 c 0.619428,0 1.096117,0.143835 1.43164,0.427735 0.344127,0.2753 0.517578,0.79486 0.517578,1.560547 0,1.118406 -0.216326,2.090109 -0.646484,2.916015 -0.430159,0.8259 -1.147727,1.240235 -2.154297,1.240235 h -0.748047 z"
         transform="translate(0,289.0625)"
         id="path827"
         inkscape:connector-curvature="0" />
    </g>
  </g>
</svg>